<svg class="bg-svg-a" width="1450" height="900" viewBox="0 0 1825 1080" fill="none" xmlns="http://www.w3.org/2000/svg">
    <path d="M1185.17 1404.08C1122.64 1474.48 1048.66 1522.84 963.217 1549.17C878.684 1574.48 789.268 1574.45 694.968 1549.11C599.649 1522.85 507.095 1469.85 417.308 1390.1C262.22 1252.36 148.318 1091.87 75.6021 908.649C1.86586 724.519 -17.2493 532.322 18.2567 332.056C52.7424 130.885 150.639 -60.509 311.947 -242.125C353.633 -289.059 401.609 -335.883 455.875 -382.596C511.047 -430.329 565.259 -469.788 618.511 -500.975C652.048 -522.294 685.142 -518.454 717.792 -489.455C744.32 -465.893 760.255 -433.487 765.598 -392.238C771.847 -352.008 763.191 -318.63 739.629 -292.102C732.379 -283.939 726.432 -278.27 721.786 -275.095C662.419 -232.914 613.419 -195.213 574.787 -161.992C535.135 -129.678 496.731 -92.6043 459.576 -50.7714C344.486 78.8085 278.243 217.095 260.849 364.089C242.434 510.177 264.816 651.432 327.994 787.854C391.171 924.277 482.449 1045.5 601.825 1151.53C688.552 1228.56 770.846 1271.54 848.706 1280.46C926.452 1287.45 989.793 1263.4 1038.73 1208.31C1094.01 1146.07 1116.98 1068.82 1107.65 976.578C1098.32 884.332 1053.74 768.075 973.902 627.806C894.064 487.537 772.959 311.529 610.589 99.7825C587.458 68.2863 578.947 38.8242 585.055 11.3964C591.164 -16.0316 607.812 -45.0503 634.999 -75.6598C699.341 -148.102 754.979 -163.48 801.913 -121.794C810.076 -114.544 818.92 -103.951 828.445 -90.0154C903.854 24.4165 991.788 146.323 1092.25 275.705C1192.59 403.159 1273.89 494.527 1336.13 549.806C1391.22 598.742 1438.78 626.376 1478.78 632.706C1517.77 638.131 1552.22 624.008 1582.12 590.337C1611.12 557.687 1628.05 517.052 1632.9 468.432C1636.73 418.906 1632.06 348.135 1618.88 256.117C1615.47 231.186 1620.56 211.068 1634.15 195.764C1645.93 182.5 1661.12 177.734 1679.71 181.466C1699.2 184.178 1719.66 195.05 1741.09 214.081C1780.88 249.423 1803.9 287.209 1810.15 327.439C1825.94 430.901 1828.36 520.656 1817.39 596.704C1806.43 672.752 1770.14 745.466 1708.51 814.848C1645.08 886.27 1573.47 925.793 1493.69 933.417C1412.89 940.136 1329.75 915.576 1244.28 859.739C1335.37 1075.71 1315.67 1257.15 1185.17 1404.08Z" fill="white" fill-opacity="0.05"/>
</svg> 